<svg width="512" height="512" fill="none" xmlns="http://www.w3.org/2000/svg"><path fill="#070101" d="M0 0h512v512H0z"/><path fill="#EFEFEF" d="M68.9 136.3h183.4v239.4H68.9z"/><path d="m142.713 272.672-8.522 22.612c-.507 1.857 3.318 3.15 11.475 3.882v4.134h-33.497v-4.134c3.544-.563 6.356-1.097 8.437-1.604 2.138-.562 3.432-1.462 3.882-2.7l28.94-77.456c1.294-1.294 2.897-2.447 4.81-3.459 1.968-1.013 3.656-1.885 5.062-2.616l32.906 83.531c.45 1.182 1.407 2.11 2.869 2.785 1.519.675 3.994 1.181 7.425 1.519v4.134h-34.003v-4.219c3.937-.225 6.694-.59 8.269-1.097 1.575-.562 2.137-1.462 1.687-2.7l-8.775-22.612h-30.965zm28.181-7.341a2164.973 2164.973 0 0 0-6.497-16.537c-2.025-5.232-4.163-10.744-6.413-16.538l-12.403 33.075h25.313z" fill="#070101"/><path fill="#EFEFEF" d="M266.7 136.3h176.4v239.4H266.7z"/><path d="M354.141 304.312c-2.25 0-5.26-.056-9.028-.168-3.769-.113-7.566-.225-11.391-.338a760.119 760.119 0 0 1-9.703-.337l-3.966-.169 17.381-8.016c1.632.788 3.966 1.322 7.004 1.603 3.037.282 5.709.422 8.015.422 7.313 0 13.135-1.547 17.466-4.64 4.331-3.094 6.497-7.144 6.497-12.15 0-3.263-.872-6.582-2.616-9.957-1.744-3.375-4.5-6.215-8.269-8.521-3.712-2.307-8.522-3.46-14.428-3.46-3.769 0-7.087.169-9.956.506-2.813.338-5.344.732-7.594 1.182l-.844-8.016h8.269c7.706 0 13.528-.816 17.466-2.447 3.937-1.687 6.581-3.769 7.931-6.244 1.406-2.531 2.109-5.062 2.109-7.593 0-4.388-1.828-8.072-5.484-11.053-3.6-2.982-10.35-4.472-20.25-4.472-4.05 0-8.719.253-14.006.759-5.288.506-10.181 1.153-14.681 1.941l-.844-5.4c2.756-.732 6.047-1.407 9.872-2.025 3.881-.675 7.903-1.21 12.065-1.603 4.219-.45 8.213-.675 11.982-.675 10.575 0 18.956 1.715 25.143 5.146 6.244 3.375 9.366 8.072 9.366 14.091 0 4.725-1.153 8.831-3.459 12.319-2.307 3.431-5.541 6.047-9.704 7.847 6.019 1.631 11.138 4.781 15.357 9.45 4.275 4.612 6.412 9.928 6.412 15.947 0 7.987-3.347 14.343-10.04 19.068-6.694 4.669-15.385 7.003-26.072 7.003zm-40.163-1.012v-4.134c3.488-.619 6.244-1.266 8.269-1.941 2.025-.675 3.037-1.238 3.037-1.688v-76.528l13.5-1.603v78.131c0 1.125 3.769 2.335 11.307 3.629v4.134h-36.113z" fill="#070101"/></svg>